<?xml version="1.0" standalone="no"?>
<!DOCTYPE svg PUBLIC "-//W3C//DTD SVG 20010904//EN"
 "http://www.w3.org/TR/2001/REC-SVG-20010904/DTD/svg10.dtd">
<svg version="1.0" xmlns="http://www.w3.org/2000/svg"
 width="393.000000pt" height="76.000000pt" viewBox="0 0 393.000000 76.000000"
 preserveAspectRatio="xMidYMid meet">

<g transform="translate(0.000000,76.000000) scale(0.100000,-0.100000)"
fill="#000000" stroke="none">
<path d="M32 588 l2 -53 3 47 4 47 152 4 152 3 -157 2 -158 2 2 -52z"/>
<path d="M492 588 l2 -53 3 48 4 47 104 0 104 0 4 -47 3 -48 2 53 2 52 -115 0
-115 0 2 -52z"/>
<path d="M762 588 l2 -53 3 48 4 47 103 0 c67 0 107 -4 116 -12 12 -11 12 -10
1 5 -11 14 -30 17 -122 17 l-109 0 2 -52z"/>
<path d="M1102 588 l2 -53 3 48 4 47 89 0 89 0 4 -47 3 -48 2 53 2 52 -100 0
-100 0 2 -52z"/>
<path d="M1413 633 c42 -2 112 -2 155 0 42 1 7 3 -78 3 -85 0 -120 -2 -77 -3z"/>
<path d="M2707 633 l112 -4 4 -47 3 -47 2 53 2 52 -117 -2 -118 -2 112 -3z"/>
<path d="M2923 633 c31 -2 83 -2 115 0 31 2 5 3 -58 3 -63 0 -89 -1 -57 -3z"/>
<path d="M3258 633 c29 -2 74 -2 100 0 26 2 2 3 -53 3 -55 0 -76 -1 -47 -3z"/>
<path d="M3440 565 l0 -75 55 0 c54 0 55 1 54 28 -2 23 -2 24 -6 5 -4 -20 -11
-23 -49 -23 l-44 0 0 65 0 65 215 0 215 0 0 -65 0 -65 -44 0 c-38 0 -45 3 -49
23 -4 19 -4 18 -6 -5 -1 -27 0 -28 54 -28 l55 0 0 75 0 75 -225 0 -225 0 0
-75z"/>
<path d="M411 594 c13 -17 26 -30 28 -27 3 2 -8 16 -24 31 l-28 27 24 -31z"/>
<path d="M1010 580 c6 -11 13 -20 16 -20 2 0 0 9 -6 20 -6 11 -13 20 -16 20
-2 0 0 -9 6 -20z"/>
<path d="M1736 567 c3 -10 9 -15 12 -12 3 3 0 11 -7 18 -10 9 -11 8 -5 -6z"/>
<path d="M441 534 c0 -11 3 -14 6 -6 3 7 2 16 -1 19 -3 4 -6 -2 -5 -13z"/>
<path d="M60 410 c0 -109 -2 -130 -15 -130 -12 0 -15 -12 -13 -52 l2 -53 3 48
c3 33 8 47 19 47 11 0 14 24 14 135 0 74 -2 135 -5 135 -3 0 -5 -58 -5 -130z"/>
<path d="M520 410 c0 -109 -2 -130 -15 -130 -12 0 -15 -12 -13 -52 l2 -53 3
48 c3 33 8 47 19 47 11 0 14 24 14 135 0 74 -2 135 -5 135 -3 0 -5 -58 -5
-130z"/>
<path d="M682 408 c-2 -115 0 -138 12 -138 11 0 16 -14 19 -47 l3 -48 2 53 c2
40 -1 52 -13 52 -12 0 -15 24 -18 133 l-3 132 -2 -137z"/>
<path d="M790 410 c0 -109 -2 -130 -15 -130 -12 0 -15 -12 -13 -52 l2 -53 3
48 c3 33 8 47 19 47 11 0 14 24 14 135 0 74 -2 135 -5 135 -3 0 -5 -58 -5
-130z"/>
<path d="M1130 486 c0 -30 -4 -56 -9 -58 -5 -1 -3 -12 5 -22 13 -18 14 -12 14
57 0 42 -2 77 -5 77 -3 0 -5 -24 -5 -54z"/>
<path d="M1264 360 c0 -102 2 -143 3 -92 2 50 2 134 0 185 -1 50 -3 9 -3 -93z"/>
<path d="M1532 493 c-2 -49 0 -53 21 -52 16 1 17 3 5 6 -12 3 -18 18 -21 51
l-3 47 -2 -52z"/>
<path d="M1576 527 c3 -10 9 -15 12 -12 3 3 0 11 -7 18 -10 9 -11 8 -5 -6z"/>
<path d="M2792 408 c-2 -115 0 -138 12 -138 11 0 16 -14 19 -47 l3 -48 2 53
c2 40 -1 52 -13 52 -12 0 -15 24 -18 133 l-3 132 -2 -137z"/>
<path d="M3232 487 c-1 -39 -6 -56 -13 -51 -6 3 -5 -4 3 -17 13 -24 13 -23 16
14 2 20 1 54 -1 75 -3 27 -4 21 -5 -21z"/>
<path d="M3374 360 c0 -102 2 -143 3 -92 2 50 2 134 0 185 -1 50 -3 9 -3 -93z"/>
<path d="M3580 410 c0 -123 -1 -130 -20 -130 -18 0 -20 -6 -18 -52 l2 -53 3
48 c3 39 8 47 24 47 18 0 19 8 19 135 0 74 -2 135 -5 135 -3 0 -5 -58 -5 -130z"/>
<path d="M1752 500 c0 -19 2 -27 5 -17 2 9 2 25 0 35 -3 9 -5 1 -5 -18z"/>
<path d="M282 490 c0 -14 2 -19 5 -12 2 6 2 18 0 25 -3 6 -5 1 -5 -13z"/>
<path d="M441 464 c0 -11 3 -14 6 -6 3 7 2 16 -1 19 -3 4 -6 -2 -5 -13z"/>
<path d="M250 450 c-23 -7 -23 -8 -3 -9 12 -1 25 4 28 9 3 6 5 10 3 9 -2 -1
-14 -5 -28 -9z"/>
<path d="M3030 360 c0 -72 3 -90 14 -90 11 0 16 -14 19 -47 l3 -48 2 53 c2 40
-1 52 -13 52 -12 0 -15 15 -15 71 0 48 3 68 11 63 8 -4 8 0 0 15 -7 11 -14 21
-16 21 -3 0 -5 -40 -5 -90z"/>
<path d="M930 430 c0 -5 5 -10 11 -10 5 0 7 5 4 10 -3 6 -8 10 -11 10 -2 0 -4
-4 -4 -10z"/>
<path d="M1714 398 l-19 -23 23 19 c21 18 27 26 19 26 -2 0 -12 -10 -23 -22z"/>
<path d="M380 380 c-9 -6 -10 -10 -3 -10 6 0 15 5 18 10 8 12 4 12 -15 0z"/>
<path d="M328 363 c6 -2 18 -2 25 0 6 3 1 5 -13 5 -14 0 -19 -2 -12 -5z"/>
<path d="M1638 363 c7 -3 16 -2 19 1 4 3 -2 6 -13 5 -11 0 -14 -3 -6 -6z"/>
<path d="M1532 318 l-2 -48 33 1 c29 2 29 2 5 6 -24 4 -27 10 -31 46 l-4 42
-1 -47z"/>
<path d="M252 273 c24 -4 27 -9 31 -51 l3 -47 2 53 2 52 -32 -1 c-30 -2 -30
-2 -6 -6z"/>
<path d="M938 273 c7 -3 16 -2 19 1 4 3 -2 6 -13 5 -11 0 -14 -3 -6 -6z"/>
<path d="M1348 273 c7 -3 16 -2 19 1 4 3 -2 6 -13 5 -11 0 -14 -3 -6 -6z"/>
<path d="M2608 273 c7 -3 16 -2 19 1 4 3 -2 6 -13 5 -11 0 -14 -3 -6 -6z"/>
<path d="M2878 273 c7 -3 16 -2 19 1 4 3 -2 6 -13 5 -11 0 -14 -3 -6 -6z"/>
<path d="M3758 273 c6 -2 18 -2 25 0 6 3 1 5 -13 5 -14 0 -19 -2 -12 -5z"/>
</g>
</svg>
